<svg width="444mm" height="295mm" viewBox="0 0 444 295" xmlns="http://www.w3.org/2000/svg" version="1.1" preserveAspectRatio="xMidYMid meet"><g id="svgGroup" stroke-linecap="round" fill-rule="evenodd" font-size="9pt" stroke="#000" stroke-width="0.25mm" fill="none" style="stroke:#000;stroke-width:0.25mm;fill:none"><path d="M 0 267 L 0 276.125 L 3 276.125 L 3 285.875 L 0 285.875 L 0 295 L 9.625 295 L 9.625 292 L 19.375 292 L 19.375 295 L 29.125 295 L 29.125 292 L 38.875 292 L 38.875 295 L 48.625 295 L 48.625 292 L 58.375 292 L 58.375 295 L 68.125 295 L 68.125 292 L 77.875 292 L 77.875 295 L 87.625 295 L 87.625 292 L 97.375 292 L 97.375 295 L 107.125 295 L 107.125 292 L 116.875 292 L 116.875 295 L 126.625 295 L 126.625 292 L 136.375 292 L 136.375 295 L 146 295 L 146 285.875 L 143 285.875 L 143 276.125 L 146 276.125 L 146 267 L 136.375 267 L 136.375 270 L 126.625 270 L 126.625 267 L 116.875 267 L 116.875 270 L 107.125 270 L 107.125 267 L 97.375 267 L 97.375 270 L 87.625 270 L 87.625 267 L 77.875 267 L 77.875 270 L 68.125 270 L 68.125 267 L 58.375 267 L 58.375 270 L 48.625 270 L 48.625 267 L 38.875 267 L 38.875 270 L 29.125 270 L 29.125 267 L 19.375 267 L 19.375 270 L 9.625 270 L 9.625 267 L 0 267 Z" id="front_outsideCutPath" stroke="#FF0000" stroke-width="0.1" style="stroke:#FF0000;stroke-width:0.1" vector-effect="non-scaling-stroke"/><path d="M 152 267 L 152 276.125 L 149 276.125 L 149 285.875 L 152 285.875 L 152 295 L 158.625 295 L 158.625 292 L 168.375 292 L 168.375 295 L 178.125 295 L 178.125 292 L 187.875 292 L 187.875 295 L 197.625 295 L 197.625 292 L 207.375 292 L 207.375 295 L 217.125 295 L 217.125 292 L 226.875 292 L 226.875 295 L 236.625 295 L 236.625 292 L 246.375 292 L 246.375 295 L 256.125 295 L 256.125 292 L 265.875 292 L 265.875 295 L 275.625 295 L 275.625 292 L 285.375 292 L 285.375 295 L 292 295 L 292 285.875 L 295 285.875 L 295 276.125 L 292 276.125 L 292 267 L 285.375 267 L 285.375 270 L 275.625 270 L 275.625 267 L 265.875 267 L 265.875 270 L 256.125 270 L 256.125 267 L 246.375 267 L 246.375 270 L 236.625 270 L 236.625 267 L 226.875 267 L 226.875 270 L 217.125 270 L 217.125 267 L 207.375 267 L 207.375 270 L 197.625 270 L 197.625 267 L 187.875 267 L 187.875 270 L 178.125 270 L 178.125 267 L 168.375 267 L 168.375 270 L 158.625 270 L 158.625 267 L 152 267 Z" id="left_outsideCutPath" stroke="#FF0000" stroke-width="0.1" style="stroke:#FF0000;stroke-width:0.1" vector-effect="non-scaling-stroke"/><path d="M 301 152 L 301 158.625 L 298 158.625 L 298 168.375 L 301 168.375 L 301 178.125 L 298 178.125 L 298 187.875 L 301 187.875 L 301 197.625 L 298 197.625 L 298 207.375 L 301 207.375 L 301 217.125 L 298 217.125 L 298 226.875 L 301 226.875 L 301 236.625 L 298 236.625 L 298 246.375 L 301 246.375 L 301 256.125 L 298 256.125 L 298 265.875 L 301 265.875 L 301 275.625 L 298 275.625 L 298 285.375 L 301 285.375 L 301 292 L 307.625 292 L 307.625 295 L 317.375 295 L 317.375 292 L 327.125 292 L 327.125 295 L 336.875 295 L 336.875 292 L 346.625 292 L 346.625 295 L 356.375 295 L 356.375 292 L 366.125 292 L 366.125 295 L 375.875 295 L 375.875 292 L 385.625 292 L 385.625 295 L 395.375 295 L 395.375 292 L 405.125 292 L 405.125 295 L 414.875 295 L 414.875 292 L 424.625 292 L 424.625 295 L 434.375 295 L 434.375 292 L 441 292 L 441 285.375 L 444 285.375 L 444 275.625 L 441 275.625 L 441 265.875 L 444 265.875 L 444 256.125 L 441 256.125 L 441 246.375 L 444 246.375 L 444 236.625 L 441 236.625 L 441 226.875 L 444 226.875 L 444 217.125 L 441 217.125 L 441 207.375 L 444 207.375 L 444 197.625 L 441 197.625 L 441 187.875 L 444 187.875 L 444 178.125 L 441 178.125 L 441 168.375 L 444 168.375 L 444 158.625 L 441 158.625 L 441 152 L 434.375 152 L 434.375 149 L 424.625 149 L 424.625 152 L 414.875 152 L 414.875 149 L 405.125 149 L 405.125 152 L 395.375 152 L 395.375 149 L 385.625 149 L 385.625 152 L 375.875 152 L 375.875 149 L 366.125 149 L 366.125 152 L 356.375 152 L 356.375 149 L 346.625 149 L 346.625 152 L 336.875 152 L 336.875 149 L 327.125 149 L 327.125 152 L 317.375 152 L 317.375 149 L 307.625 149 L 307.625 152 L 301 152 Z" id="top_outsideCutPath" stroke="#FF0000" stroke-width="0.1" style="stroke:#FF0000;stroke-width:0.1" vector-effect="non-scaling-stroke"/><path d="M 0 236 L 0 245.125 L 3 245.125 L 3 254.875 L 0 254.875 L 0 264 L 9.625 264 L 9.625 261 L 19.375 261 L 19.375 264 L 29.125 264 L 29.125 261 L 38.875 261 L 38.875 264 L 48.625 264 L 48.625 261 L 58.375 261 L 58.375 264 L 68.125 264 L 68.125 261 L 77.875 261 L 77.875 264 L 87.625 264 L 87.625 261 L 97.375 261 L 97.375 264 L 107.125 264 L 107.125 261 L 116.875 261 L 116.875 264 L 126.625 264 L 126.625 261 L 136.375 261 L 136.375 264 L 146 264 L 146 254.875 L 143 254.875 L 143 245.125 L 146 245.125 L 146 236 L 136.375 236 L 136.375 239 L 126.625 239 L 126.625 236 L 116.875 236 L 116.875 239 L 107.125 239 L 107.125 236 L 97.375 236 L 97.375 239 L 87.625 239 L 87.625 236 L 77.875 236 L 77.875 239 L 68.125 239 L 68.125 236 L 58.375 236 L 58.375 239 L 48.625 239 L 48.625 236 L 38.875 236 L 38.875 239 L 29.125 239 L 29.125 236 L 19.375 236 L 19.375 239 L 9.625 239 L 9.625 236 L 0 236 Z" id="back_outsideCutPath" stroke="#FF0000" stroke-width="0.1" style="stroke:#FF0000;stroke-width:0.1" vector-effect="non-scaling-stroke"/><path d="M 152 236 L 152 245.125 L 149 245.125 L 149 254.875 L 152 254.875 L 152 264 L 158.625 264 L 158.625 261 L 168.375 261 L 168.375 264 L 178.125 264 L 178.125 261 L 187.875 261 L 187.875 264 L 197.625 264 L 197.625 261 L 207.375 261 L 207.375 264 L 217.125 264 L 217.125 261 L 226.875 261 L 226.875 264 L 236.625 264 L 236.625 261 L 246.375 261 L 246.375 264 L 256.125 264 L 256.125 261 L 265.875 261 L 265.875 264 L 275.625 264 L 275.625 261 L 285.375 261 L 285.375 264 L 292 264 L 292 254.875 L 295 254.875 L 295 245.125 L 292 245.125 L 292 236 L 285.375 236 L 285.375 239 L 275.625 239 L 275.625 236 L 265.875 236 L 265.875 239 L 256.125 239 L 256.125 236 L 246.375 236 L 246.375 239 L 236.625 239 L 236.625 236 L 226.875 236 L 226.875 239 L 217.125 239 L 217.125 236 L 207.375 236 L 207.375 239 L 197.625 239 L 197.625 236 L 187.875 236 L 187.875 239 L 178.125 239 L 178.125 236 L 168.375 236 L 168.375 239 L 158.625 239 L 158.625 236 L 152 236 Z" id="right_outsideCutPath" stroke="#FF0000" stroke-width="0.1" style="stroke:#FF0000;stroke-width:0.1" vector-effect="non-scaling-stroke"/><path d="M 301 3 L 301 9.625 L 298 9.625 L 298 19.375 L 301 19.375 L 301 29.125 L 298 29.125 L 298 38.875 L 301 38.875 L 301 48.625 L 298 48.625 L 298 58.375 L 301 58.375 L 301 68.125 L 298 68.125 L 298 77.875 L 301 77.875 L 301 87.625 L 298 87.625 L 298 97.375 L 301 97.375 L 301 107.125 L 298 107.125 L 298 116.875 L 301 116.875 L 301 126.625 L 298 126.625 L 298 136.375 L 301 136.375 L 301 143 L 307.625 143 L 307.625 146 L 317.375 146 L 317.375 143 L 327.125 143 L 327.125 146 L 336.875 146 L 336.875 143 L 346.625 143 L 346.625 146 L 356.375 146 L 356.375 143 L 366.125 143 L 366.125 146 L 375.875 146 L 375.875 143 L 385.625 143 L 385.625 146 L 395.375 146 L 395.375 143 L 405.125 143 L 405.125 146 L 414.875 146 L 414.875 143 L 424.625 143 L 424.625 146 L 434.375 146 L 434.375 143 L 441 143 L 441 136.375 L 444 136.375 L 444 126.625 L 441 126.625 L 441 116.875 L 444 116.875 L 444 107.125 L 441 107.125 L 441 97.375 L 444 97.375 L 444 87.625 L 441 87.625 L 441 77.875 L 444 77.875 L 444 68.125 L 441 68.125 L 441 58.375 L 444 58.375 L 444 48.625 L 441 48.625 L 441 38.875 L 444 38.875 L 444 29.125 L 441 29.125 L 441 19.375 L 444 19.375 L 444 9.625 L 441 9.625 L 441 3 L 434.375 3 L 434.375 0 L 424.625 0 L 424.625 3 L 414.875 3 L 414.875 0 L 405.125 0 L 405.125 3 L 395.375 3 L 395.375 0 L 385.625 0 L 385.625 3 L 375.875 3 L 375.875 0 L 366.125 0 L 366.125 3 L 356.375 3 L 356.375 0 L 346.625 0 L 346.625 3 L 336.875 3 L 336.875 0 L 327.125 0 L 327.125 3 L 317.375 3 L 317.375 0 L 307.625 0 L 307.625 3 L 301 3 Z" id="bottom_outsideCutPath" stroke="#FF0000" stroke-width="0.1" style="stroke:#FF0000;stroke-width:0.1" vector-effect="non-scaling-stroke"/></g></svg>